<?xml version="1.0" encoding="UTF-8" standalone="no"?>
<!-- Created with Inkscape (http://www.inkscape.org/) -->

<svg
   xmlns:dc="http://purl.org/dc/elements/1.1/"
   xmlns:cc="http://creativecommons.org/ns#"
   xmlns:rdf="http://www.w3.org/1999/02/22-rdf-syntax-ns#"
   xmlns:svg="http://www.w3.org/2000/svg"
   xmlns="http://www.w3.org/2000/svg"
   xmlns:sodipodi="http://sodipodi.sourceforge.net/DTD/sodipodi-0.dtd"
   xmlns:inkscape="http://www.inkscape.org/namespaces/inkscape"
   width="512"
   height="512"
   viewBox="0 0 480 480.00001"
   id="svg2"
   version="1.1"
   inkscape:version="0.92.4 (5da689c313, 2019-01-14)"
   sodipodi:docname="Chademo_type4.svg"
   inkscape:export-filename="/Users/sss/Desktop/Plug/chademo type4.png"
   inkscape:export-xdpi="600"
   inkscape:export-ydpi="600">
  <defs
     id="defs4" />
  <sodipodi:namedview
     id="base"
     pagecolor="#ffffff"
     bordercolor="#666666"
     borderopacity="1.0"
     inkscape:pageopacity="0.0"
     inkscape:pageshadow="2"
     inkscape:zoom="0.5"
     inkscape:cx="128"
     inkscape:cy="561.25983"
     inkscape:document-units="px"
     inkscape:current-layer="layer1"
     showgrid="true"
     inkscape:snap-grids="false"
     inkscape:snap-to-guides="true"
     inkscape:window-width="1920"
     inkscape:window-height="1017"
     inkscape:window-x="-8"
     inkscape:window-y="-8"
     inkscape:window-maximized="1"
     units="px">
    <inkscape:grid
       type="xygrid"
       id="grid4211" />
  </sodipodi:namedview>
  <metadata
     id="metadata7">
    <rdf:RDF>
      <cc:Work
         rdf:about="">
        <dc:format>image/svg+xml</dc:format>
        <dc:type
           rdf:resource="http://purl.org/dc/dcmitype/StillImage" />
        <dc:title></dc:title>
      </cc:Work>
    </rdf:RDF>
  </metadata>
  <g
     inkscape:label="Layer 1"
     inkscape:groupmode="layer"
     id="layer1"
     transform="translate(0,-572.36208)">
    <ellipse
       style="fill:none;fill-rule:evenodd;stroke:#000000;stroke-width:46.69181061;stroke-linecap:butt;stroke-linejoin:miter;stroke-miterlimit:4;stroke-dasharray:none;stroke-opacity:1"
       id="path4213"
       cx="344.98901"
       cy="813.22186"
       rx="49.640533"
       ry="52.206017" />
    <ellipse
       ry="52.206017"
       rx="49.640533"
       cy="813.22186"
       cx="144.88124"
       id="ellipse4215"
       style="fill:none;fill-rule:evenodd;stroke:#000000;stroke-width:46.69181061;stroke-linecap:butt;stroke-linejoin:miter;stroke-miterlimit:4;stroke-dasharray:none;stroke-opacity:1" />
    <g
       style="stroke:#000000;stroke-opacity:1"
       id="g4234"
       transform="matrix(0.71833557,0,0,0.71833557,-22.901399,449.27867)">
      <circle
         r="70"
         cy="330.93365"
         cx="371.42859"
         id="path4221"
         style="fill:none;fill-rule:evenodd;stroke:#000000;stroke-width:10;stroke-linecap:butt;stroke-linejoin:miter;stroke-miterlimit:4;stroke-dasharray:none;stroke-opacity:1" />
    </g>
    <ellipse
       style="fill:none;fill-rule:evenodd;stroke:#000000;stroke-width:5.25066519;stroke-linecap:butt;stroke-linejoin:miter;stroke-miterlimit:4;stroke-dasharray:none;stroke-opacity:1"
       id="path4223"
       cx="206.86337"
       cy="687.00006"
       rx="11.764912"
       ry="12.27801" />
    <ellipse
       ry="12.27801"
       rx="11.764912"
       cy="687.00006"
       cx="279.92838"
       id="ellipse4225"
       style="fill:none;fill-rule:evenodd;stroke:#000000;stroke-width:5.25066519;stroke-linecap:butt;stroke-linejoin:miter;stroke-miterlimit:4;stroke-dasharray:none;stroke-opacity:1" />
    <ellipse
       style="fill:none;fill-rule:evenodd;stroke:#000000;stroke-width:5.25066519;stroke-linecap:butt;stroke-linejoin:miter;stroke-miterlimit:4;stroke-dasharray:none;stroke-opacity:1"
       id="ellipse4227"
       cx="244.42207"
       cy="722.50641"
       rx="11.764912"
       ry="12.27801" />
    <g
       style="stroke:#000000;stroke-opacity:1"
       id="g4231"
       transform="matrix(0.71833557,0,0,0.71833557,-22.901399,452.15202)">
      <ellipse
         style="fill:none;fill-rule:evenodd;stroke:#000000;stroke-width:7.30948782;stroke-linecap:butt;stroke-linejoin:miter;stroke-miterlimit:4;stroke-dasharray:none;stroke-opacity:1"
         id="ellipse4229"
         cx="372.14288"
         cy="276.64792"
         rx="16.378016"
         ry="17.092304" />
    </g>
    <g
       style="stroke:#000000;stroke-opacity:1"
       id="g4248"
       transform="matrix(0.71833557,0,0,0.71833557,-22.901399,700.69613)">
      <circle
         style="fill:none;fill-rule:evenodd;stroke:#000000;stroke-width:10;stroke-linecap:butt;stroke-linejoin:miter;stroke-miterlimit:4;stroke-dasharray:none;stroke-opacity:1"
         id="circle4250"
         cx="371.42859"
         cy="330.93365"
         r="70" />
    </g>
    <ellipse
       ry="12.27801"
       rx="11.764912"
       cy="938.4176"
       cx="206.86337"
       id="ellipse4252"
       style="fill:none;fill-rule:evenodd;stroke:#000000;stroke-width:5.25066519;stroke-linecap:butt;stroke-linejoin:miter;stroke-miterlimit:4;stroke-dasharray:none;stroke-opacity:1" />
    <ellipse
       style="fill:none;fill-rule:evenodd;stroke:#000000;stroke-width:5.25066519;stroke-linecap:butt;stroke-linejoin:miter;stroke-miterlimit:4;stroke-dasharray:none;stroke-opacity:1"
       id="ellipse4254"
       cx="279.92838"
       cy="938.4176"
       rx="11.764912"
       ry="12.27801" />
    <ellipse
       ry="12.27801"
       rx="11.764912"
       cy="973.92383"
       cx="244.42207"
       id="ellipse4256"
       style="fill:none;fill-rule:evenodd;stroke:#000000;stroke-width:5.25066519;stroke-linecap:butt;stroke-linejoin:miter;stroke-miterlimit:4;stroke-dasharray:none;stroke-opacity:1" />
    <g
       style="stroke:#000000;stroke-opacity:1"
       id="g4258"
       transform="matrix(0.71833557,0,0,0.71833557,-22.901399,703.56947)">
      <ellipse
         ry="17.092304"
         rx="16.378016"
         cy="276.64792"
         cx="372.14288"
         id="ellipse4260"
         style="fill:none;fill-rule:evenodd;stroke:#000000;stroke-width:7.30948782;stroke-linecap:butt;stroke-linejoin:miter;stroke-miterlimit:4;stroke-dasharray:none;stroke-opacity:1" />
    </g>
    <path
       style="fill:none;fill-rule:evenodd;stroke:#000000;stroke-width:12.93004036;stroke-linecap:butt;stroke-linejoin:miter;stroke-miterlimit:4;stroke-dasharray:none;stroke-opacity:1"
       d="m 119.73952,631.58562 c 0,0 37.7745,-21.1165 58.2365,-27.70723 20.10134,-6.47456 41.22429,-11.04832 62.34126,-11.28813 24.15232,-0.27427 48.5286,4.06449 71.57701,11.28813 20.21908,6.3369 57.2103,27.70723 57.2103,27.70723 l 27.70722,-6.15716 38.99537,38.99535 -8.20955,28.73343 c 0,0 22.40604,40.10835 28.22032,62.08471 5.31496,20.08905 6.49095,41.32174 5.64406,62.08472 -0.97633,23.93683 -4.31466,48.22572 -12.31432,70.80734 -6.80079,19.19752 -17.50133,37.0978 -29.75961,53.36206 -12.08331,16.03225 -26.72349,30.25465 -42.48442,42.68968 -13.08926,10.32715 -27.48114,19.23305 -42.68966,26.06535 -15.49637,6.9616 -32.08906,11.5321 -48.7442,14.8798 -13.04406,2.6218 -26.4093,3.8806 -39.71369,4.0022 -13.12772,0.1199 -26.33284,-0.8983 -39.25191,-3.2325 -13.30952,-2.4049 -26.47163,-6.0522 -39.04668,-11.0316 -14.15359,-5.6046 -27.83969,-12.6362 -40.53464,-21.03701 C 109.90252,982.56892 93.46122,969.92543 79.717967,954.83664 65.790647,939.54572 53.629326,922.24346 44.827383,903.52694 36.719055,886.2853 32.022817,867.42448 28.921382,848.62557 25.827955,829.8752 24.662417,810.60005 26.355897,791.67183 c 1.719279,-19.21657 6.673953,-38.15495 12.82742,-56.44066 5.151102,-15.30707 20.010775,-44.12632 20.010775,-44.12632 l -6.772877,-29.96486 35.5063,-35.71153 z"
       id="path4271"
       inkscape:connector-curvature="0"
       sodipodi:nodetypes="caaaccccaaaaaaaaaaaaaaaacccc" />
  </g>
</svg>
