<?xml version="1.0" encoding="UTF-8" standalone="no"?>
<!-- Created with Inkscape (http://www.inkscape.org/) -->

<svg
   xmlns:dc="http://purl.org/dc/elements/1.1/"
   xmlns:cc="http://creativecommons.org/ns#"
   xmlns:rdf="http://www.w3.org/1999/02/22-rdf-syntax-ns#"
   xmlns:svg="http://www.w3.org/2000/svg"
   xmlns="http://www.w3.org/2000/svg"
   xmlns:sodipodi="http://sodipodi.sourceforge.net/DTD/sodipodi-0.dtd"
   xmlns:inkscape="http://www.inkscape.org/namespaces/inkscape"
   width="512"
   height="512"
   viewBox="0 0 479.99999 480.00001"
   id="svg2"
   version="1.1"
   inkscape:version="0.92.4 (5da689c313, 2019-01-14)"
   sodipodi:docname="Type1_J1772.svg"
   inkscape:export-filename="/Users/sss/Desktop/EV Plugs/type1.png"
   inkscape:export-xdpi="600"
   inkscape:export-ydpi="600">
  <defs
     id="defs4" />
  <sodipodi:namedview
     id="base"
     pagecolor="#ffffff"
     bordercolor="#666666"
     borderopacity="1.0"
     inkscape:pageopacity="0.0"
     inkscape:pageshadow="2"
     inkscape:zoom="0.49497475"
     inkscape:cx="186.3374"
     inkscape:cy="399.26802"
     inkscape:document-units="px"
     inkscape:current-layer="layer1"
     showgrid="true"
     inkscape:snap-to-guides="false"
     inkscape:snap-grids="false"
     inkscape:window-width="1095"
     inkscape:window-height="830"
     inkscape:window-x="82"
     inkscape:window-y="96"
     inkscape:window-maximized="0"
     units="px">
    <inkscape:grid
       type="xygrid"
       id="grid4198" />
  </sodipodi:namedview>
  <metadata
     id="metadata7">
    <rdf:RDF>
      <cc:Work
         rdf:about="">
        <dc:format>image/svg+xml</dc:format>
        <dc:type
           rdf:resource="http://purl.org/dc/dcmitype/StillImage" />
        <dc:title></dc:title>
      </cc:Work>
    </rdf:RDF>
  </metadata>
  <g
     inkscape:label="Layer 1"
     inkscape:groupmode="layer"
     id="layer1"
     transform="translate(0,-572.36211)">
    <ellipse
       style="fill:#000000;fill-opacity:1;fill-rule:evenodd;stroke:#000000;stroke-width:7.69001961;stroke-linecap:butt;stroke-linejoin:miter;stroke-miterlimit:4;stroke-dasharray:none;stroke-opacity:1"
       id="path4200"
       cx="241.34094"
       cy="815.95459"
       rx="129.34492"
       ry="130.49295"
       inkscape:export-xdpi="600"
       inkscape:export-ydpi="600" />
    <ellipse
       style="fill:#ffffff;fill-opacity:1;fill-rule:evenodd;stroke:#000000;stroke-width:7.99210024;stroke-linecap:butt;stroke-linejoin:miter;stroke-miterlimit:4;stroke-dasharray:none;stroke-opacity:1"
       id="ellipse4204"
       cx="182.79181"
       cy="761.99756"
       rx="49.110081"
       ry="47.962063"
       inkscape:export-xdpi="600"
       inkscape:export-ydpi="600" />
    <ellipse
       ry="47.962063"
       rx="49.110081"
       cy="763.14557"
       cx="302.18613"
       id="ellipse4206"
       style="fill:#ffffff;fill-opacity:1;fill-rule:evenodd;stroke:#000000;stroke-width:7.99210024;stroke-linecap:butt;stroke-linejoin:miter;stroke-miterlimit:4;stroke-dasharray:none;stroke-opacity:1"
       inkscape:export-xdpi="600"
       inkscape:export-ydpi="600" />
    <ellipse
       style="fill:#ffffff;fill-opacity:1;fill-rule:evenodd;stroke:#000000;stroke-width:7.99210024;stroke-linecap:butt;stroke-linejoin:miter;stroke-miterlimit:4;stroke-dasharray:none;stroke-opacity:1"
       id="ellipse4208"
       cx="241.34094"
       cy="897.46417"
       rx="49.110081"
       ry="47.962063"
       inkscape:export-xdpi="600"
       inkscape:export-ydpi="600" />
    <ellipse
       id="ellipse4210"
       style="fill:#ffffff;fill-opacity:1;fill-rule:evenodd;stroke:#000000;stroke-width:7.93468332;stroke-linecap:butt;stroke-linejoin:miter;stroke-miterlimit:4;stroke-dasharray:none;stroke-opacity:1"
       ry="35.284634"
       rx="35.417934"
       cy="858.43134"
       cx="158.8166"
       inkscape:export-xdpi="600"
       inkscape:export-ydpi="600" />
    <ellipse
       ry="36.323536"
       rx="36.323532"
       style="fill:#ffffff;fill-opacity:1;fill-rule:evenodd;stroke:#000000;stroke-width:8.15292168;stroke-linecap:butt;stroke-linejoin:miter;stroke-miterlimit:4;stroke-dasharray:none;stroke-opacity:1"
       id="ellipse4212"
       cx="323.53931"
       cy="857.97211"
       inkscape:export-xdpi="600"
       inkscape:export-ydpi="600" />
    <ellipse
       cx="183.16985"
       cy="761.22137"
       rx="13.897278"
       ry="13.561032"
       style="fill:#000000;fill-opacity:1;fill-rule:evenodd;stroke:#000000;stroke-width:0.80361551;stroke-linecap:butt;stroke-linejoin:miter;stroke-miterlimit:4;stroke-dasharray:none;stroke-opacity:1"
       id="ellipse4236"
       inkscape:export-xdpi="600"
       inkscape:export-ydpi="600" />
    <ellipse
       id="ellipse4238"
       style="fill:#000000;fill-opacity:1;fill-rule:evenodd;stroke:#000000;stroke-width:0.80361551;stroke-linecap:butt;stroke-linejoin:miter;stroke-miterlimit:4;stroke-dasharray:none;stroke-opacity:1"
       ry="13.561032"
       rx="13.897278"
       cy="761.62726"
       cx="301.68887"
       inkscape:export-xdpi="600"
       inkscape:export-ydpi="600" />
    <ellipse
       cx="241.6176"
       cy="896.38177"
       rx="13.897278"
       ry="13.561032"
       style="fill:#000000;fill-opacity:1;fill-rule:evenodd;stroke:#000000;stroke-width:0.80361551;stroke-linecap:butt;stroke-linejoin:miter;stroke-miterlimit:4;stroke-dasharray:none;stroke-opacity:1"
       id="ellipse4242"
       inkscape:export-xdpi="600"
       inkscape:export-ydpi="600" />
    <ellipse
       style="fill:#000000;fill-opacity:1;fill-rule:evenodd;stroke:#000000;stroke-width:0.80361551px;stroke-linecap:butt;stroke-linejoin:miter;stroke-opacity:1"
       id="path4244"
       cx="159.01891"
       cy="859.65741"
       rx="8.3206863"
       ry="8.5236301"
       inkscape:export-xdpi="600"
       inkscape:export-ydpi="600" />
    <ellipse
       ry="8.5236301"
       rx="8.3206863"
       cy="858.05017"
       cx="323.82541"
       id="ellipse4246"
       style="fill:#000000;fill-opacity:1;fill-rule:evenodd;stroke:#000000;stroke-width:0.80361551px;stroke-linecap:butt;stroke-linejoin:miter;stroke-opacity:1"
       inkscape:export-xdpi="600"
       inkscape:export-ydpi="600" />
    <path
       style="fill:none;fill-opacity:1;fill-rule:evenodd;stroke:#000000;stroke-width:8.0361557;stroke-linecap:butt;stroke-linejoin:miter;stroke-miterlimit:4;stroke-dasharray:none;stroke-opacity:1"
       d="m 198.18703,988.32364 c 0,0 -6.66782,-2.19499 -9.94424,-3.45 -31.71412,-12.14818 -62.46443,-31.40112 -83.00392,-58.24485 -24.394881,-31.88247 -42.213657,-73.11625 -40.994596,-113.24251 1.356229,-44.64133 21.515455,-91.47823 53.171216,-122.9838 32.0082,-31.85635 79.45046,-53.62721 124.60735,-53.17121 46.74595,0.47204 95.44768,23.94311 127.85444,57.63597 29.74719,30.92775 47.25492,76.43179 48.30057,119.33082 0.96028,39.39653 -14.93101,80.38807 -38.96516,111.619 -21.71854,28.22185 -55.5667,48.51114 -88.4834,59.86831 -2.04335,0.70501 -6.0883,2.23237 -6.0883,2.23237 l -0.40589,17.85906 c -0.13072,5.7514 -5.61534,12.7921 -11.36484,12.9884 -31.9798,1.0919 -32.36299,0.4615 -60.07129,0.8118 -6.13425,0.077 -14.05648,-8.479 -14.20606,-14.612 z"
       id="path4248"
       inkscape:connector-curvature="0"
       sodipodi:nodetypes="csaaaaaaascssssc"
       inkscape:export-xdpi="600"
       inkscape:export-ydpi="600" />
    <path
       style="fill:none;fill-opacity:1;fill-rule:evenodd;stroke:#000000;stroke-width:8.0361557;stroke-linecap:butt;stroke-linejoin:miter;stroke-miterlimit:4;stroke-dasharray:none;stroke-opacity:1"
       d="m 199.43813,592.09026 80.36156,-0.574"
       id="path4271"
       inkscape:connector-curvature="0"
       inkscape:export-xdpi="600"
       inkscape:export-ydpi="600" />
    <path
       style="fill:#000000;fill-opacity:1;fill-rule:evenodd;stroke:#000000;stroke-width:8.0361557;stroke-linecap:butt;stroke-linejoin:miter;stroke-miterlimit:4;stroke-dasharray:none;stroke-opacity:1"
       d="m 199.43813,627.10494 -0.57401,-47.64291 c 0,0 -5.19308,0.0595 -7.46214,1.14802 -2.80831,1.34722 -5.9903,3.33159 -6.88814,6.31412 -5.17237,17.18207 -10.90621,46.4949 -10.90621,46.4949"
       id="path4273"
       inkscape:connector-curvature="0"
       sodipodi:nodetypes="ccasc"
       inkscape:export-xdpi="600"
       inkscape:export-ydpi="600" />
    <path
       sodipodi:nodetypes="ccasc"
       inkscape:connector-curvature="0"
       id="path4275"
       d="m 279.87413,627.67896 0.57401,-47.64292 c 0,0 5.19308,0.0595 7.46214,1.14802 2.80831,1.34722 5.9903,3.33159 6.88813,6.31412 5.17238,17.18207 10.90622,46.4949 10.90622,46.4949"
       style="fill:#000000;fill-opacity:1;fill-rule:evenodd;stroke:#000000;stroke-width:8.0361557;stroke-linecap:butt;stroke-linejoin:miter;stroke-miterlimit:4;stroke-dasharray:none;stroke-opacity:1"
       inkscape:export-xdpi="600"
       inkscape:export-ydpi="600" />
    <path
       inkscape:export-ydpi="600"
       inkscape:export-xdpi="600"
       sodipodi:nodetypes="cssaaaaasscssssc"
       inkscape:connector-curvature="0"
       id="path4162"
       d="m 189.37635,995.48635 c 0,0 -11.27148,-4.32996 -14.53865,-6.05741 C 143.03924,972.61609 117.59597,959.05171 98.728605,933.96219 73.386364,900.26247 54.241607,857.20003 55.526323,815.0729 c 1.42927,-46.86734 22.67414,-96.03974 56.034647,-129.11632 33.73195,-33.44485 83.72913,-56.30129 131.31785,-55.82256 49.26336,0.49558 100.58783,25.13702 134.7398,60.50996 31.34917,32.46994 49.79973,80.24301 50.9017,125.28117 1.01199,41.36103 -13.84237,83.22445 -41.06355,117.1848 -20.406,25.4579 -46.38252,40.3771 -79.44835,57.17122 -2.03019,1.03112 -13.72214,4.77902 -13.72214,4.77902 l -0.42775,18.74961 c -0.13776,6.0382 2.20001,19.1124 -3.85912,19.3185 -33.70201,1.1463 -54.40021,0.4845 -83.60068,0.8522 -6.4646,0.081 -15.54036,0.8368 -15.78288,-5.5992 z"
       style="fill:none;fill-opacity:1;fill-rule:evenodd;stroke:#000000;stroke-width:28.12654305;stroke-linecap:butt;stroke-linejoin:miter;stroke-miterlimit:4;stroke-dasharray:none;stroke-opacity:1" />
  </g>
</svg>
